<?xml version="1.0" encoding="UTF-8" standalone="no"?>
<!-- Created with Inkscape (http://www.inkscape.org/) -->

<svg
   width="210mm"
   height="297mm"
   viewBox="0 0 210 297"
   version="1.1"
   id="svg1"
   xml:space="preserve"
   inkscape:version="1.3.2 (091e20e, 2023-11-25, custom)"
   sodipodi:docname="panther02.svg"
   xmlns:inkscape="http://www.inkscape.org/namespaces/inkscape"
   xmlns:sodipodi="http://sodipodi.sourceforge.net/DTD/sodipodi-0.dtd"
   xmlns="http://www.w3.org/2000/svg"
   xmlns:svg="http://www.w3.org/2000/svg"><sodipodi:namedview
     id="namedview1"
     pagecolor="#ffffff"
     bordercolor="#000000"
     borderopacity="0.25"
     inkscape:showpageshadow="2"
     inkscape:pageopacity="0.0"
     inkscape:pagecheckerboard="0"
     inkscape:deskcolor="#d1d1d1"
     inkscape:document-units="mm"
     inkscape:zoom="0.57103676"
     inkscape:cx="396.64697"
     inkscape:cy="561.25984"
     inkscape:window-width="1600"
     inkscape:window-height="837"
     inkscape:window-x="-8"
     inkscape:window-y="-8"
     inkscape:window-maximized="1"
     inkscape:current-layer="layer1" /><defs
     id="defs1" /><g
     inkscape:label="Réteg 1"
     inkscape:groupmode="layer"
     id="layer1"><path
       style="fill:#000000"
       d="M 22.034758,107.95787 V 36.123504 h 86.386472 86.38646 v 71.834366 71.83438 H 108.42123 22.034758 Z m 102.309912,17.2806 c -0.0845,-0.21106 -0.14715,-0.14837 -0.15985,0.15986 -0.0115,0.27891 0.0511,0.43518 0.13897,0.34726 0.0879,-0.0879 0.0973,-0.31612 0.0209,-0.50712 z m -0.33193,-1.3867 c -0.0973,-0.38775 -0.22797,-0.65397 -0.29033,-0.5916 -0.0624,0.0624 -0.0338,0.43064 0.0636,0.81839 0.0973,0.38775 0.22797,0.65397 0.29033,0.59161 0.0624,-0.0624 0.0338,-0.43065 -0.0635,-0.8184 z m -0.46182,-1.52371 c -0.0845,-0.21107 -0.14715,-0.14838 -0.15985,0.15985 -0.0115,0.27891 0.0511,0.43518 0.13897,0.34726 0.0879,-0.0879 0.0973,-0.31612 0.0209,-0.50711 z m -1.32291,-5.55625 c -0.0845,-0.21107 -0.14716,-0.14838 -0.15985,0.15985 -0.0115,0.27891 0.051,0.43518 0.13896,0.34726 0.0879,-0.0879 0.0973,-0.31612 0.0209,-0.50711 z m -0.48619,-3.25769 c -0.24703,-1.56079 -0.75441,-2.62381 -0.75141,-1.57427 0.001,0.46568 0.36113,2.05218 0.68064,3.00121 0.27199,0.8079 0.30838,0.0743 0.0708,-1.42694 z m 2.95089,-17.925515 c 2.2e-4,-0.10914 0.30587,-0.19843 0.67924,-0.19843 0.80761,0 1.7024,-0.4354 1.7024,-0.82836 0,-0.15432 0.24618,-0.6263 0.54705,-1.04885 0.73647,-1.03427 0.48416,-1.82696 -0.58151,-1.82696 -0.60702,0 -0.77498,0.10839 -0.71749,0.46302 0.102,0.62919 -1.08393,2.67118 -1.65698,2.85306 -0.77238,0.24514 -2.29972,-0.54652 -2.39838,-1.24314 l -0.0875,-0.61773 -0.59728,0.59728 -0.59729,0.59728 0.86187,0.78498 c 0.67655,0.61619 1.07512,0.77221 1.85367,0.72563 0.54549,-0.0326 0.99197,-0.14864 0.99218,-0.25778 z m -28.008546,-0.31965 c 0.61919,-0.25342 0.31593,-1.2865 -0.3282,-1.11805 -0.26565,0.0695 -0.62102,-0.04 -0.78971,-0.24326 -0.39204,-0.47238 -1.67067,-0.50742 -1.41707,-0.0388 0.0984,0.1819 -0.13265,-0.0152 -0.51355,-0.43803 -0.3809,-0.42281 -0.69254,-0.85541 -0.69254,-0.96132 0,-0.25113 -0.83275,-0.46414 -1.25677,-0.32147 -0.52517,0.1767 -0.38645,0.69349 0.33073,1.23206 0.3638,0.27321 0.66146,0.71016 0.66146,0.97101 0,0.3979 0.68111,0.84323 1.36701,0.89381 0.097,0.007 0.27189,0.1085 0.38861,0.22523 0.2208,0.2208 1.49806,0.10662 2.25003,-0.20115 z m 1.15372,-1.73087 c -0.0899,-0.14552 -0.33509,-0.26458 -0.54478,-0.26458 -0.20969,0 -0.38126,0.11906 -0.38126,0.26458 0,0.14552 0.24515,0.26459 0.54478,0.26459 0.29963,0 0.4712,-0.11907 0.38126,-0.26459 z"
       id="path1" /></g></svg>
