<?xml version="1.0" encoding="UTF-8" standalone="no"?>
<!-- Created with Inkscape (http://www.inkscape.org/) -->

<svg
   version="1.1"
   id="svg1"
   width="512"
   height="512"
   viewBox="0 0 512 512"
   sodipodi:docname="dragonlogo2.svg"
   inkscape:version="1.3.2 (091e20e, 2023-11-25, custom)"
   xmlns:inkscape="http://www.inkscape.org/namespaces/inkscape"
   xmlns:sodipodi="http://sodipodi.sourceforge.net/DTD/sodipodi-0.dtd"
   xmlns="http://www.w3.org/2000/svg"
   xmlns:svg="http://www.w3.org/2000/svg">
  <defs
     id="defs1" />
  <sodipodi:namedview
     id="namedview1"
     pagecolor="#ffffff"
     bordercolor="#000000"
     borderopacity="0.25"
     inkscape:showpageshadow="2"
     inkscape:pageopacity="0.0"
     inkscape:pagecheckerboard="0"
     inkscape:deskcolor="#d1d1d1"
     showgrid="false"
     inkscape:zoom="1.2519531"
     inkscape:cx="256"
     inkscape:cy="256"
     inkscape:window-width="1600"
     inkscape:window-height="837"
     inkscape:window-x="-8"
     inkscape:window-y="-8"
     inkscape:window-maximized="1"
     inkscape:current-layer="g1" />
  <g
     inkscape:groupmode="layer"
     inkscape:label="Image"
     id="g1">
    <path
       style="fill:#000000"
       d="m 266.94425,488.14968 c -1.93967,-2.2105 -4.22499,-3.23386 -10.18061,-4.55886 C 237.06473,479.20823 215.9619,469.86747 204.77183,460.57765 192.61754,450.48734 183.25158,436.40341 179.4498,422.5 c -2.26019,-8.26569 -2.98439,-24.84884 -1.49703,-34.27973 0.66967,-4.24615 2.62779,-11.92925 4.35139,-17.07356 3.69598,-11.03112 4.12937,-10.27499 -8.70364,-15.18534 -22.61987,-8.65514 -40.91308,-9.11767 -60.99651,-1.54225 -12.812574,4.83287 -20.947446,10.60942 -26.272375,18.65593 -2.415839,3.65058 -2.775151,5.15021 -2.720651,11.35498 0.06108,6.95348 2.037992,14.32964 5.166241,19.27599 0.767341,1.21332 1.06185,2.74535 0.654462,3.40451 -0.451037,0.7298 -0.317366,0.93685 0.341808,0.52946 0.595382,-0.36797 1.354317,0.125 1.686522,1.09549 0.756707,2.2106 7.959511,7.26452 10.353333,7.26452 0.98266,0 2.21692,0.43027 2.74281,0.95616 0.92319,0.92319 2.33598,0.69235 18.73958,-3.0618 4.08314,-0.93447 6.28176,-1.01985 7.44049,-0.28895 2.79397,1.7624 2.50426,3.0835 -0.57702,2.63127 -2.00054,-0.29362 -5.55019,0.87887 -11.49208,3.79596 -7.59563,3.72897 -9.21327,4.16853 -13.88229,3.7722 C 101.87818,423.55812 97.7,422.50153 95.5,421.45688 86.400382,417.136 77.13482,403.70504 74.928816,391.63779 72.661403,379.23462 78.061864,363.49916 88.202314,352.96249 94.683324,346.22824 100.64277,341 101.83784,341 c 0.49013,0 2.41462,-1.33905 4.27665,-2.97568 1.96444,-1.72663 4.07789,-2.76111 5.03501,-2.4645 1.00106,0.31021 2.43354,-0.48558 3.64392,-2.02433 1.09693,-1.39452 2.71716,-2.53549 3.6005,-2.53549 0.88334,0 2.47268,-0.8666 3.53187,-1.92579 1.1953,-1.1953 2.7119,-1.72021 3.99823,-1.38383 2.45555,0.64214 7.07598,-2.10912 7.07598,-4.21343 0,-1.95348 2.62288,-1.9021 3.37817,0.0662 0.45838,1.19451 1.03249,1.30747 2.54125,0.5 1.072,-0.57371 2.91905,-1.04312 4.10455,-1.04312 1.18549,0 2.9635,-0.99791 3.95112,-2.21757 1.55114,-1.91558 2.01955,-2.03177 3.43961,-0.85322 1.41506,1.17439 1.96207,1.06546 3.92907,-0.78244 C 156.75838,316.87836 159,316.32628 159,318 c 0,0.55 1.125,1 2.5,1 1.57833,0 2.5,-0.56457 2.5,-1.53138 0,-2.33737 2.84665,-2.91738 4.95478,-1.00954 2.58313,2.33769 6.45797,1.65523 6.86477,-1.20908 0.40399,-2.84454 3.24001,-2.94666 5.72029,-0.20598 2.72214,3.00793 5.41553,2.0575 7.83894,-2.76618 2.3387,-4.65504 4.30899,-5.49133 4.80167,-2.03806 0.38584,2.7044 2.96327,3.35754 6.86764,1.7403 2.05844,-0.85263 2.82688,-1.81317 2.6709,-3.33856 -0.17073,-1.66958 0.27104,-2.09005 2.00464,-1.90798 2.93221,0.30795 4.85539,-3.00811 2.75536,-4.75098 -1.99549,-1.6561 -1.8668,-2.99148 0.27101,-2.81233 0.9625,0.0807 2.83224,0.0754 4.15499,-0.0118 2.30705,-0.15199 2.33422,-0.23664 0.66703,-2.07886 -1.65674,-1.83067 -1.64309,-1.97118 0.29201,-3.00681 1.11647,-0.59752 3.16798,-1.18058 4.5589,-1.2957 3.32649,-0.27531 3.9049,-2.09306 1.53536,-4.82516 C 217.52228,285.14317 218.24364,284 222.45203,284 225.30491,284 227,282.69392 227,280.49576 c 0,-0.71707 -6.93911,-2.57995 -15.05014,-4.04038 -18.50592,-3.33206 -39.66894,-1.41337 -61.44986,5.5712 -19.61341,6.28951 -30.57293,13.12261 -36.0575,22.48133 -2.5294,4.31609 -5.4425,6.54414 -5.4425,4.16264 0,-0.69668 1.84789,-5.03668 4.10642,-9.64445 3.27135,-6.6741 4.1161,-9.51129 4.15403,-13.95193 0.11777,-13.78818 -13.33318,-26.12323 -31.886523,-29.2412 -6.158783,-1.03501 -8.300908,-0.95102 -15.781137,0.61875 -8.518371,1.78763 -10.453015,2.79159 -19.230036,9.97916 C 47.125332,269.08204 45,269.71874 45,268.03746 c 0,-0.5294 2.032668,-3.3419 4.517039,-6.25 2.484371,-2.9081 5.739595,-7.76246 7.233831,-10.78746 2.423103,-4.90544 2.711495,-6.58102 2.667786,-15.5 -0.03881,-7.91961 -0.516518,-11.19097 -2.296239,-15.72477 C 52.373399,207.67723 39.990633,194.89791 29.5,191.2682 23.364831,189.14546 5.70828,188.84026 2.25,190.79718 0.09809044,192.01486 0,191.91388 0,188.48095 0,185.8497 0.81150871,184.03844 3.0400049,181.69577 8.0683591,176.40977 13.852894,163.52796 15.113614,154.80856 17.117939,140.94623 12.934407,126.6777 4.0412455,117.04468 0,112.66722 0,112.66722 0,103.54849 L 0,94.429756 7.7193347,88.964878 C 23.251973,77.968597 38.292161,60.490011 41.491175,49.717761 43.376577,43.368925 43.435777,33.94961 41.616874,29.717881 39.53939,24.88456 33.41272,18.319549 28.166044,15.304694 25.59972,13.830027 22.47104,11.842987 21.213421,10.889048 19.955803,9.9351095 15.005803,7.9296037 10.213421,6.4323686 5.4210396,4.9351335 1.0971687,3.3500139 0.60481926,2.9098807 -0.46971823,1.9493035 10.259744,4.3696142 14.502522,6.044871 c 1.648613,0.6509531 4.562613,1.1420007 6.475557,1.091217 2.472903,-0.065649 8.771116,2.4959204 21.792881,8.863464 C 83.052424,35.696878 117.2643,58.04847 163,94.548602 c 31.47331,25.117798 41.19277,31.863888 45.06046,31.275608 2.0621,-0.31366 2.01443,-0.54443 -1.46448,-7.08857 C 204.61819,115.01524 203,111.4493 203,110.81132 c 0,-3.31343 16.50486,16.65784 17.49603,21.17062 0.34851,1.58672 2.4387,4.6024 4.64487,6.70151 2.20618,2.0991 4.40691,4.80552 4.89053,6.01425 0.48361,1.20874 2.02439,2.89624 3.42394,3.75 1.39954,0.85377 3.70867,2.26326 5.13139,3.1322 3.74924,2.2899 2.45061,2.69622 -4.55639,1.42561 l -6.17731,-1.12016 -4.14538,4.70941 c -9.689,11.00727 -13.30072,17.8559 -16.29836,30.90524 -3.41159,14.8514 -1.95058,31.48779 3.76094,42.8254 3.86286,7.66792 12.53462,16.6746 16.05455,16.6746 3.61452,0 5.77519,-0.96361 5.77519,-2.5756 0,-0.84996 -0.61495,-1.12565 -1.63645,-0.73367 -1.12447,0.4315 -1.49068,0.18704 -1.17051,-0.78138 0.25627,-0.77514 2.00517,-1.63435 3.88645,-1.90935 2.58718,-0.37819 3.42051,-0.98726 3.42051,-2.5 0,-1.45411 0.77502,-2.08872 2.83948,-2.32506 2.83947,-0.32505 2.83947,-0.32505 2.12975,-6.5 C 241.75952,223.5 241.75952,223.5 244.01105,225.5 c 2.25153,2 2.25153,2 1.51431,-5 -0.73336,-6.96325 -0.7267,-6.99047 1.26943,-5.18486 2.72611,2.46594 3.20513,1.11761 1.69048,-4.75836 -2.3373,-9.06737 0.36028,-10.32011 4.19344,-1.9474 2.74683,5.99987 4.27662,5.8722 4.30598,-0.35938 0.008,-1.7875 0.46531,-3.25 1.01531,-3.25 0.55,0 1,0.41186 1,0.91523 0,0.50338 1.37049,2.19088 3.04554,3.75 1.67505,1.55913 3.94251,4.26614 5.03881,6.0156 1.80381,2.8785 2.34602,3.12666 5.70446,2.6109 5.65835,-0.86897 6.80348,-1.77771 12.06116,-9.57127 10.31311,-15.28737 13.96027,-25.39034 16.68553,-46.22046 1.86423,-14.24896 1.72931,-18.74661 -0.71124,-23.71016 -1.03572,-2.10644 -1.82426,-5.895 -1.82426,-8.7647 0,-4.62946 0.27332,-5.22116 3.25,-7.03587 1.7875,-1.08973 3.63891,-2.11276 4.11425,-2.27339 0.47534,-0.16062 1.01011,-1.62081 1.18839,-3.24486 0.34459,-3.13915 3.58913,-6.46902 6.30814,-6.47406 0.90157,-0.002 4.56422,-3.26319 8.13922,-7.24782 C 332.40472,92.152222 341.94628,83 343.63183,83 c 1.12994,0 0.57402,1.309026 -2.01724,4.75 -7.58624,10.073882 -8.94096,12.32363 -7.9922,13.27239 0.82762,0.82762 8.54479,-2.196248 27.02503,-10.589409 C 368.77651,86.740998 399.11744,76.838105 413.5,73.182575 445.52242,65.043623 467.58637,62.028388 495.25,62.010706 508.80065,62.002045 512,62.262634 512,63.375 512,64.73796 507.88544,66 503.44185,66 500.5848,66 484.73337,74.070245 476,79.971136 c -3.575,2.415525 -9.44633,7.347689 -13.04741,10.960364 -14.81243,14.86015 -29.55753,43.48478 -27.41792,53.22636 0.37049,1.68681 2.23879,4.79938 4.15178,6.91684 4.21013,4.66011 3.58161,6.96615 -1.00666,3.6934 -4.9317,-3.51771 -15.22454,-3.22329 -23.17979,0.66305 -17.54705,8.57217 -30.11502,31.89789 -22.75,42.22322 3.63108,5.09056 2.63519,8.63871 -1.2269,4.37116 -0.98278,-1.08596 -2.59449,-2.2308 -3.58158,-2.54409 -2.23477,-0.70929 -8.65845,1.904 -11.69704,4.75861 -3.85892,3.62527 -8.10991,11.06618 -8.80482,15.41194 -0.57443,3.59228 -0.18639,4.94363 2.96227,10.31599 1.99281,3.40021 3.35917,6.60956 3.03635,7.13189 -0.32282,0.52232 -0.18295,0.82603 0.31081,0.67491 1.41334,-0.43259 9.25091,9.12919 9.25091,11.28604 0,1.06655 0.40598,1.93918 0.90217,1.93918 0.4962,0 1.33395,1.2375 1.86166,2.75 0.52772,1.5125 1.95657,4.325 3.17524,6.25 1.80902,2.85753 2.10016,3.04109 1.58602,1 -0.55253,-2.19348 -0.24361,-2.04022 2.51958,1.25 3.2022,3.81297 5.95533,4.89433 5.95533,2.33909 0,-0.77599 -0.88182,-4.24418 -1.95959,-7.70707 -1.07777,-3.4629 -1.79814,-6.45762 -1.60082,-6.65494 0.78003,-0.78003 10.58249,17.92817 9.93917,18.96909 -0.39864,0.64502 -0.2361,0.83369 0.38666,0.44881 1.31367,-0.81189 5.23458,3.9578 5.23458,6.36775 0,1.7673 2.25701,8.07144 4.00901,11.19774 0.52721,0.94075 0.69841,2.51575 0.38044,3.5 -0.44613,1.38099 -0.35282,1.47332 0.40873,0.40443 0.80291,-1.12694 1.19818,-0.99022 2.12071,0.73354 0.71538,1.33671 1.95453,2.03244 3.35748,1.8851 1.41728,-0.14885 2.1215,0.25417 1.94198,1.1114 -0.39664,1.89409 1.89635,13.10792 2.7937,13.66251 1.51296,0.93506 -0.58284,6.99798 -2.7526,7.963 -1.67678,0.74576 -2.15206,1.76615 -2.05277,4.40717 0.097,2.58043 -0.53554,4.0085 -2.53874,5.73158 -1.46737,1.26218 -2.66794,2.78941 -2.66794,3.39386 0,1.30954 -6.43975,4.23542 -10.06642,4.57363 -1.87734,0.17508 -4.42809,-1.34343 -9.5,-5.65552 -3.81347,-3.24218 -7.27108,-5.90079 -7.68358,-5.90802 -0.4125,-0.007 -0.75,-0.65145 -0.75,-1.43159 0,-2.1201 -6.05398,-5.45392 -11.92624,-6.56757 -2.85239,-0.54095 -5.86802,-1.66539 -6.70139,-2.49876 C 368.53899,311.68185 367.38819,311 366.81503,311 c -0.6639,0 -0.80415,-1.58687 -0.38644,-4.37235 0.58115,-3.87538 0.41902,-4.43424 -1.42639,-4.91682 -1.61774,-0.42305 -1.94872,-1.07574 -1.48414,-2.92675 0.54201,-2.15954 0.0934,-2.54131 -4.79797,-4.08318 -5.81857,-1.83414 -9.32015,-2.15703 -10.07888,-0.92938 -0.26225,0.42433 0.81447,5.22781 2.39273,10.6744 2.7004,9.31916 3.22561,10.26215 8.91016,15.99768 4.43414,4.47391 7.72114,9.28101 12.35972,18.07559 11.61902,22.02925 14.21218,24.76514 22.83482,24.09162 2.55858,-0.19985 5.26158,-0.74388 6.00666,-1.20897 1.40903,-0.87951 2.28851,-1.0911 7.44895,-1.79208 3.44369,-0.46778 4.61905,0.0514 6.04876,2.67203 0.53464,0.97999 2.51859,2.55499 4.40878,3.5 2.74425,1.37201 3.557,2.47219 4.03375,5.46025 0.82964,5.19995 -0.077,5.49289 -2.21574,0.71589 -3.02598,-6.75874 -11.97652,-8.94078 -15.25424,-3.7188 -0.88601,1.41157 -0.62301,2.06263 1.39641,3.45673 1.36842,0.94468 3.7183,2.93272 5.22195,4.41787 2.26046,2.23263 3.38614,2.61732 6.5,2.22131 3.1477,-0.40031 4.28598,0.004 6.93241,2.46021 2.99183,2.77718 5.99274,9.94168 4.66966,11.14852 -0.33539,0.30593 -0.81163,-0.009 -1.0583,-0.7 -0.24668,-0.69093 -0.86008,-1.00187 -1.3631,-0.69098 C 427.41157,390.86367 427,390.24658 427,389.18146 c 0,-2.56226 -1.70055,-3.78117 -6.25,-4.47983 L 417,384.12574 v 5.32635 c 0,3.74717 -0.5646,6.02359 -1.90432,7.67808 -1.90432,2.35174 -1.90432,2.35174 -1.36922,-2.39565 0.51868,-4.60171 0.43903,-4.78087 -2.59568,-5.83878 -2.4951,-0.86979 -3.13078,-1.6558 -3.13078,-3.87112 0,-3.26041 -1.54765,-4.78415 -5.70341,-5.6153 -2.56492,-0.51299 -3.10619,-0.25372 -3.64104,1.74406 -0.34553,1.29064 -0.63439,3.16199 -0.6419,4.15855 C 397.99899,387.2582 393.1952,398 392.33948,398 c -0.2834,0 -0.21117,-1.8 0.16052,-4 0.68108,-4.0313 -0.10232,-4.99768 -2.28333,-2.81667 -2.09632,2.09632 -2.62486,-0.10413 -0.89589,-3.72981 0.92357,-1.93676 1.67922,-4.09965 1.67922,-4.80644 0,-0.70678 -2.33447,-2.91214 -5.1877,-4.9008 -3.9383,-2.74492 -5.60835,-3.39061 -6.93426,-2.68101 -2.39614,1.28238 -6.58121,1.17152 -10.59726,-0.2807 -2.67711,-0.96806 -3.77927,-0.95435 -5.41524,0.0673 -1.94148,1.21247 -2.01711,1.11469 -1.38033,-1.78457 1.17193,-5.33574 -2.10213,-3.50656 -4.35425,2.43267 -1.05519,2.78273 -1.10825,2.64027 -0.73265,-1.967 0.31474,-3.86068 1.00551,-5.4836 3.10127,-7.2863 1.63247,-1.40419 3.40716,-2.09369 4.49788,-1.74751 1.77746,0.56415 6.00254,-3.50398 6.00254,-5.77955 0,-0.55586 -4.897,-5.67402 -10.88223,-11.37371 -5.98522,-5.69968 -11.42772,-11.68 -12.09443,-13.28959 -0.69968,-1.68916 -2.38552,-3.33555 -3.98724,-3.89391 -2.57002,-0.89592 -4.89716,-3.1028 -12.74556,-12.08695 -2.99161,-3.42453 -2.99161,-3.42453 -5.89107,-1.3812 -1.59471,1.12383 -3.87342,2.34546 -5.06381,2.71473 -2.16435,0.67139 -2.16435,0.67139 0.25,3.08574 2.88047,2.88047 2.97551,4.69419 0.5243,10.00525 -2.40898,5.21954 -5.91958,8.35952 -11.03484,9.86988 l -4.13852,1.22196 4.13924,6.45408 c 6.53979,10.19714 11.87999,16.76366 15.40437,18.94185 1.79072,1.10672 3.50069,2.01223 3.79993,2.01223 0.29923,0 0.84593,-1.78675 1.21489,-3.97056 1.66982,-9.88358 11.12995,-12.6694 11.80471,-3.47626 0.11014,1.50062 -0.31592,2.9121 -0.9468,3.13663 -0.63088,0.22452 -1.08088,-0.3529 -1,-1.28316 0.0809,-0.93027 -0.33933,-1.86446 -0.93381,-2.07598 -1.7493,-0.62242 -6.13704,3.41332 -6.65459,6.12074 -0.39979,2.09137 0.15347,2.82515 3.40991,4.5225 2.13793,1.11435 5.14484,2.02609 6.68203,2.02609 6.01878,0 10.12852,9.41797 6.80672,15.59845 l -1.55948,2.90155 0.11112,-3.77517 c 0.0848,-2.88013 -0.5646,-4.48046 -2.73896,-6.75 C 342.90835,382.33867 340.88224,381 339.97342,381 c -2.31683,0 -3.97562,4.21162 -3.29958,8.37755 0.79645,4.90794 -0.46164,12.19183 -2.47865,14.35051 -0.93235,0.99784 -1.35769,1.37723 -0.94519,0.8431 0.4125,-0.53414 0.75,-2.85802 0.75,-5.16417 0,-5.18568 -2.48428,-6.74216 -5.14051,-3.22071 -2.273,3.01338 -3.37686,1.73662 -1.97511,-2.28446 1.82589,-5.23774 1.55407,-5.57029 -5.13438,-6.28148 -5.61135,-0.59666 -6.42882,-0.44662 -8,1.46833 -0.9625,1.17309 -1.75689,3.32055 -1.76531,4.77211 -0.012,2.07129 -0.22392,2.31643 -0.98469,1.13922 -0.53316,-0.825 -0.97627,-2.93594 -0.98469,-4.69098 -0.008,-1.75504 -0.45601,-3.46335 -0.99464,-3.79625 C 307.20122,385.3883 304,387.99065 304,390.5942 c 0,1.38811 -0.40315,2.27467 -0.89589,1.97014 -1.89831,-1.17322 0.8077,-8.08044 4.49095,-11.46335 l 3.70077,-3.39901 -7.39792,-6.90901 c -4.06885,-3.79995 -11.03312,-10.3704 -15.47615,-14.60099 l -8.07824,-7.69198 -3.92176,2.23401 c -3.7861,2.15674 -10.17278,4.48727 -15.47499,5.64691 -2.55324,0.55841 -2.55324,0.55841 -2.12851,15.50942 0.37122,13.06721 0.16223,15.81524 -1.65868,21.81018 -3.64706,12.00716 -13.93878,24.83646 -23.44909,29.23081 l -5.78951,2.67511 5.04315,7.44678 c 3.04892,4.50206 5.93145,7.66233 7.28951,7.99186 1.2355,0.2998 2.24636,1.0498 2.24636,1.66667 0,0.61687 0.40965,1.49658 0.91033,1.95492 0.52889,0.48416 0.60891,0.30957 0.19098,-0.41667 -1.0226,-1.77697 0.52949,-1.50767 3.00992,0.52224 1.77088,1.44923 11.38877,19.13617 11.38877,20.94352 0,0.319 -1.0125,-0.92094 -2.25,-2.75542 -1.98468,-2.94211 -8.0692,-5.97448 -9.37261,-4.67106 -0.22181,0.22181 0.7466,3.0034 2.15202,6.18131 1.40542,3.17791 2.3308,6.00253 2.0564,6.27693 -0.2744,0.27441 -3.29515,-2.03153 -6.71278,-5.1243 C 237.75398,460.08579 236,459.05064 236,460.97675 c 0,1.15741 8.44821,7.96314 15.5,12.48652 5.74695,3.68639 16.09839,12.9178 17.57143,15.6702 1.39978,2.61551 0.77939,2.32859 -2.12718,-0.98379 z m -41.4869,-85.44425 c 0.8269,-1.26201 2.00583,-3.73566 2.61983,-5.497 0.98091,-2.81383 0.79058,-3.75837 -1.56856,-7.78394 -1.47672,-2.51982 -2.8112,-4.43367 -2.96552,-4.253 -0.15431,0.18068 -0.59179,4.71601 -0.97217,10.07851 -0.72027,10.15408 -0.0374,11.9178 2.88642,7.45543 z M 366,276.03239 c 0,-1.35227 -9.32638,-8.13121 -16.5,-11.99312 -3.3,-1.77655 -6.45,-3.57391 -7,-3.99415 -2.77391,-2.11943 -10.19648,-4.09295 -12.36995,-3.28893 -2.03925,0.75437 -1.70173,0.99918 2.81495,2.04176 6.75911,1.56019 14.74042,5.62708 24.555,12.51206 8.97508,6.29607 8.5,6.03213 8.5,4.72238 z m 3.50116,-10.03426 c 0.34055,-0.55103 -0.5953,-1.46362 -2.07967,-2.02798 -1.48438,-0.56436 -2.4175,-1.30747 -2.0736,-1.65137 0.34389,-0.34389 -0.71266,-1.61234 -2.34789,-2.81878 -1.63523,-1.20644 -2.64169,-2.55962 -2.23657,-3.00708 0.40511,-0.44747 0.28657,-0.55967 -0.26343,-0.24935 -0.55,0.31032 -3.025,-1.44455 -5.5,-3.8997 -2.475,-2.45515 -7.10529,-6.08685 -10.28954,-8.07043 -3.18425,-1.98359 -5.40143,-3.86908 -4.92706,-4.18998 2.10793,-1.42598 1.78347,-4.17511 -1.27108,-10.76968 C 335.10137,221.94974 328.99922,212 327.89383,212 c -0.35102,0 -0.91969,1.76028 -1.26373,3.91174 -0.34403,2.15145 -1.55027,6.06912 -2.68054,8.70592 -2.05502,4.79419 -2.05502,4.79419 0.24771,6.65538 2.30273,1.86119 2.30273,1.86119 0.0175,0.74006 -1.25685,-0.61662 -3.90715,-2.22182 -5.88954,-3.56711 C 314.50853,225.85588 312,225.30582 312,227.05902 c 0,0.58246 0.42234,0.79799 0.93854,0.47896 0.5162,-0.31902 1.3037,0.0545 1.75,0.82999 0.4463,0.77552 2.83646,2.35865 5.31146,3.51807 2.475,1.15942 5.70423,3.12187 7.17607,4.361 1.47183,1.23913 6.59223,4.95296 11.37866,8.25296 4.78643,3.3 11.98844,8.7 16.00447,12 5.7363,4.71356 12.10853,9.4056 14.13178,10.40561 0.10504,0.0519 0.46962,-0.35645 0.81018,-0.90748 z m 4.52227,-10.69547 c -1.21251,-1.54146 -2.61381,-2.85891 -3.114,-2.92766 -2.22159,-0.30535 -2.3243,-0.46064 -0.90943,-1.375 1,-0.64625 1.08333,-0.97448 0.25,-0.98469 -0.6875,-0.008 -1.25,-0.66375 -1.25,-1.45629 0,-0.79254 -0.51953,-1.76207 -1.15451,-2.15451 -0.76393,-0.47214 -0.88081,-0.27068 -0.34549,0.59549 0.53532,0.86617 0.41844,1.06763 -0.34549,0.59549 C 366.51953,247.20305 366,246.20697 366,245.38197 c 0,-0.825 -0.3787,-1.26596 -0.84155,-0.9799 -0.46285,0.28606 -2.36121,-1.04779 -4.21857,-2.9641 -1.85736,-1.91631 -3.94827,-3.26499 -4.64645,-2.99707 -0.69819,0.26792 -1.16234,-0.0592 -1.03143,-0.72689 0.1309,-0.6677 -0.35795,-1.09036 -1.08633,-0.93923 -0.72838,0.15112 -1.08339,-0.11507 -0.78891,-0.59155 0.29448,-0.47648 -1.08669,-2.40013 -3.06926,-4.27478 l -3.60468,-3.40845 2.39359,3.59628 c 3.07756,4.62392 8.02394,10.08316 10.47462,11.56066 1.05543,0.63632 1.79532,1.68227 1.64419,2.32433 -0.15112,0.64207 0.13631,0.91333 0.63875,0.6028 0.50243,-0.31052 2.03824,0.89353 3.41291,2.67567 4.16166,5.39525 7.14326,8.46405 8.72312,8.97825 2.38107,0.77496 2.38671,0.0691 0.0234,-2.93533 z m -14.45446,-26.92526 -4.56293,-9.63244 -5.02501,0.48284 c -2.76375,0.26556 -5.27329,0.73113 -5.57675,1.03459 -1.21202,1.21202 2.82931,6.70062 10.75458,14.606 7.81911,7.79947 8.36091,8.15813 8.65709,5.73082 0.1878,-1.53916 -1.53471,-6.49615 -4.24698,-12.22181 z"
       id="path1" />
    <path
       style="fill:#ffffff"
       d="m 407.36349,287.5507 c -0.65639,3.45536 0.24122,5.27495 1.59751,7.98752 0.11907,0.23814 -0.18827,0.61049 0,0.79875 0.5325,0.5325 2.6625,-0.5325 3.19501,0 0.0799,0.0799 0.61237,1.78388 1.5975,0.79876 0.5648,-0.56481 0.35721,-1.68183 0,-2.39626 -0.16095,-0.3219 -2.67979,-0.56706 -3.19501,-1.5975 -0.23814,-0.47629 0.37654,-1.22097 0,-1.59751 -0.18827,-0.18827 -0.5325,0 -0.79875,0 -0.79875,-1.33125 -1.5975,-2.6625 -2.39626,-3.99376 z"
       id="path2" />
    <path
       style="fill:#ffffff"
       d="m 419.34477,323.49454 c -1.33125,0 -2.75772,0.49441 -3.99376,0 -2.47207,-0.98883 -4.17467,-3.31562 -6.39001,-4.79251 -1.30282,-0.86855 -5.76813,-2.57312 -6.39002,-3.19501 -0.42098,-0.42098 -0.37777,-1.17652 -0.79875,-1.5975 -0.23873,-0.23874 -3.99376,-0.27436 -3.99376,-3.19501"
       id="path3" />
  </g>
</svg>
